<?xml version="1.0" encoding="utf-8"?>
<!-- Svg Vector Icons : http://www.onlinewebfonts.com/icon -->
<!DOCTYPE svg PUBLIC "-//W3C//DTD SVG 1.1//EN" "http://www.w3.org/Graphics/SVG/1.1/DTD/svg11.dtd">
<svg version="1.1" xmlns="http://www.w3.org/2000/svg" xmlns:xlink="http://www.w3.org/1999/xlink" x="0px" y="0px" viewBox="0 0 1000 1000" enable-background="new 0 0 1000 1000" xml:space="preserve">
<metadata> Svg Vector Icons : http://www.onlinewebfonts.com/icon </metadata>
<g><g transform="translate(0.000000,512.000000) scale(0.100000,-0.100000)"><path d="M4529.7,5006.9C3375.2,4888,2341.5,4399,1530.2,3587.7C751.6,2809.1,287.5,1859.8,124.4,722.5c-32.6-226.3-32.6-981.9,0-1208.2C287.5-1623,753.5-2572.3,1530.2-3351c776.7-774.8,1731.8-1244.7,2865.2-1405.8c222.5-32.6,980-30.7,1208.2,0c571.5,80.6,1064.4,230.1,1553.4,471.8c535.1,264.6,918.6,540.8,1327.1,953.1c404.6,410.4,657.8,767.1,918.6,1292.6c237.8,481.4,375.9,926.3,462.2,1486.3c49.9,333.7,46,1031.8-9.6,1390.4c-84.4,537-226.3,981.9-466,1465.2c-477.5,964.7-1238.9,1726-2205.5,2205.5c-477.5,237.8-920.6,379.7-1446,462.2C5448.3,5016.5,4803.9,5035.7,4529.7,5006.9z M5095.4,2496.5v-287.7h-95.9h-95.9v287.7v287.7h95.9h95.9V2496.5z M3590,2548.3c84.4-117,155.4-222.5,159.2-235.9c5.8-19.2-147.7-134.2-157.2-118.9c-234,326-303,425.8-310.7,446.8c-9.6,21.1,115.1,126.6,145.7,124.7C3432.7,2763.1,3505.6,2667.2,3590,2548.3z M6706.4,2709.4l76.7-55.6l-163-224.4c-90.1-124.7-166.9-230.1-170.7-235.9c-17.2-15.4-164.9,101.6-157.2,122.7c11.5,28.8,318.3,448.8,329.9,448.8C6625.9,2765,6664.2,2740,6706.4,2709.4z M4360.9,1986.3c180.3-36.4,351-113.2,515.9-226.3l122.7-86.3l122.7,86.3c569.6,397,1323.3,316.4,1787.4-189.9c423.9-462.2,464.1-1160.3,99.7-1683.9c-145.8-211-1944.7-2011.8-2009.9-2011.8c-36.4,0-239.7,193.7-916.7,868.8c-479.5,475.6-924.4,930.1-991.5,1006.9c-379.7,439.2-458.3,1005-209,1513.2C3152.7,1811.8,3762.6,2111,4360.9,1986.3z M2481.5,1420.6c140-55.6,255.1-109.3,255.1-122.7c0-40.3-57.5-163-74.8-163c-51.8,0-521.7,199.5-514,218.6c3.8,11.5,19.2,53.7,34.5,94c13.4,38.4,28.8,71,34.5,71C2222.5,1518.4,2341.5,1474.3,2481.5,1420.6z M7816.8,1447.4c15.3-40.3,30.7-82.5,34.5-94c9.6-24.9-485.2-226.3-521.6-211c-23,7.7-78.6,159.2-65.2,172.6c11.5,13.4,483.3,199.5,506.3,201.4C7782.3,1518.4,7803.4,1485.8,7816.8,1447.4z M2991.6-470.4c17.3-47.9,30.7-92,26.9-95.9c-3.8-3.8-115.1-49.9-245.5-103.6c-130.4-53.7-247.4-101.6-258.9-105.5c-26.9-11.5-94,163-72.9,184.1c15.3,13.4,475.6,205.2,506.3,209C2953.2-380.3,2972.4-420.5,2991.6-470.4z M7293.3-478.1c136.2-51.8,255.1-103.5,264.7-113.1c21.1-21.1-46-195.6-72.9-184.1c-11.5,3.8-128.5,51.8-258.9,105.5c-130.4,53.7-241.6,99.7-245.5,103.6c-5.8,5.8,55.6,186,61.4,186C7043.9-380.3,7157.1-424.4,7293.3-478.1z M3695.4-1509.9l67.1-55.6l-67.1-94c-36.4-49.9-111.2-155.3-166.9-230.1l-101.6-140l-76.7,53.7c-42.2,28.8-74.8,59.5-76.7,67.1c0,26.9,314.5,454.5,335.6,454.5C3618.7-1454.2,3659-1481.1,3695.4-1509.9z M6602.9-1659.5c80.5-115.1,155.4-216.7,164.9-228.2c9.6-13.4-15.3-42.2-69.1-80.5l-82.5-59.5l-168.8,230.1c-92.1,126.6-161.1,237.8-151.5,245.5c51.8,44.1,130.4,97.8,141.9,97.8C6447.5-1454.2,6520.4-1546.3,6602.9-1659.5z M5095.4-2547.4v-287.7h-95.9h-95.9v287.7v287.7h95.9h95.9V-2547.4z"/><path d="M3887.2,1796.5c-425.8-80.6-799.7-429.6-911-853.4c-46-172.6-36.4-450.7,19.2-631c84.4-268.5,161.1-356.7,1121.9-1315.6l882.2-882.2l926.3,930.1c838.1,840,934,943.6,997.3,1066.3c218.6,425.8,168.8,911-128.5,1279.2c-149.6,180.3-398.9,337.5-632.9,395.1c-130.4,32.6-421.9,28.8-558.1-7.7c-153.4-40.3-337.5-134.2-437.3-220.6c-157.3-138.1-176.4-138.1-339.5,3.8c-94,84.4-308.8,191.8-443,224.4C4232.4,1821.4,4038.7,1825.2,3887.2,1796.5z"/></g></g>
</svg>